<?xml version="1.0" encoding="UTF-8"?>
<svg xmlns="http://www.w3.org/2000/svg" width="650" height="300" viewBox="0 0 650 300">
  <defs>
    <linearGradient id="termBg" x1="0%" y1="0%" x2="0%" y2="100%">
      <stop offset="0%" style="stop-color:#1a1b26"/>
      <stop offset="100%" style="stop-color:#13141a"/>
    </linearGradient>
  </defs>
  
  <!-- Terminal Window -->
  <rect x="0" y="0" width="650" height="300" rx="12" ry="12" fill="url(#termBg)" stroke="#2d2d3a" stroke-width="1"/>
  
  <!-- Terminal Title Bar -->
  <rect x="0" y="0" width="650" height="36" rx="12" ry="12" fill="#1e1f29"/>
  <rect x="0" y="24" width="650" height="12" fill="#1e1f29"/>
  
  <!-- Window Controls -->
  <circle cx="20" cy="18" r="6" fill="#ff5f56"/>
  <circle cx="40" cy="18" r="6" fill="#ffbd2e"/>
  <circle cx="60" cy="18" r="6" fill="#27ca40"/>
  
  <!-- Terminal Title -->
  <text x="325" y="23" text-anchor="middle" font-family="'SF Mono', 'Consolas', monospace" font-size="12" fill="#6b7280">
    nipponhere@dev — zsh
  </text>
  
  <!-- Terminal Content -->
  <g font-family="'SF Mono', 'JetBrains Mono', 'Consolas', monospace" font-size="13">
    <!-- Command 1 -->
    <text x="20" y="65" fill="#27ca40">❯</text>
    <text x="40" y="65" fill="#e5e7eb">cat profile.json</text>
    
    <!-- JSON Output -->
    <text x="20" y="95" fill="#fbbf24">{</text>
    
    <text x="35" y="120" fill="#a78bfa">"name"</text>
    <text x="90" y="120" fill="#9ca3af">:</text>
    <text x="100" y="120" fill="#34d399">"NIPPON CHOWDHURY"</text>
    <text x="230" y="120" fill="#9ca3af">,</text>
    
    <text x="35" y="145" fill="#a78bfa">"role"</text>
    <text x="85" y="145" fill="#9ca3af">:</text>
    <text x="95" y="145" fill="#34d399">"Software Developer &amp; Engineer"</text>
    <text x="315" y="145" fill="#9ca3af">,</text>
    
    <text x="35" y="170" fill="#a78bfa">"location"</text>
    <text x="115" y="170" fill="#9ca3af">:</text>
    <text x="125" y="170" fill="#34d399">"Bangladesh 🇧🇩"</text>
    <text x="230" y="170" fill="#9ca3af">,</text>
    
    <text x="35" y="195" fill="#a78bfa">"focus"</text>
    <text x="90" y="195" fill="#9ca3af">:</text>
    <text x="100" y="195" fill="#34d399">"Building Intelligent Application Systems"</text>
    <text x="400" y="195" fill="#9ca3af">,</text>
    
    <text x="35" y="220" fill="#a78bfa">"goal"</text>
    <text x="80" y="220" fill="#9ca3af">:</text>
    <text x="90" y="220" fill="#34d399">"Creating Application &amp; AI"</text>
    
    <text x="20" y="245" fill="#fbbf24">}</text>
    
    <!-- New Command Line -->
    <text x="20" y="275" fill="#27ca40">❯</text>
    <rect x="40" y="263" width="10" height="16" fill="#667eea">
      <animate attributeName="opacity" values="1;0;1" dur="1s" repeatCount="indefinite"/>
    </rect>
  </g>
</svg>
